{"accessors":[{"bufferView":0,"byteOffset":0,"componentType":5126,"count":66049,"max":[441530.0,3438657.25,6592.80712890625],"min":[106530.0,3103657.25,154.0281219482422],"type":"VEC3"},{"bufferView":1,"byteOffset":0,"componentType":5126,"count":66049,"normalized":false,"type":"VEC2"},{"bufferView":2,"byteOffset":0,"componentType":5125,"count":393216,"type":"SCALAR"}],"asset":{"generator":"VTK","version":"2.0"},"bufferViews":[{"buffer":0,"byteLength":792588,"byteOffset":0,"target":34962},{"buffer":1,"byteLength":528392,"byteOffset":0,"target":34962},{"buffer":2,"byteLength":1572864,"byteOffset":0,"target":34963},{"buffer":3,"byteLength":273,"byteOffset":0,"target":34962}],"buffers":[{"byteLength":792588,"uri":"data:application/octet-stream;base64,"},{"byteLength":528392,"uri":"data:application/octet-stream;base64,"},{"byteLength":1572864,"uri":"data:application/octet-stream;base64,"},{"byteLength":273,"uri":"data:application/octet-stream;base64,"}],"cameras":[{"perspective":{"aspectRatio":1.17875,"yfov":0.5235987755982988,"zfar":1342314.2065704588,"znear":577867.707413959},"type":"perspective"}],"images":[{"bufferView":3,"mimeType":"image/png"}],"materials":[{"pbrMetallicRoughness":{"baseColorFactor":[1.0,1.0,1.0,1.0],"baseColorTexture":{"index":0,"texCoord":0},"metallicFactor":0.0,"roughnessFactor":1.0}}],"meshes":[{"name":"mesh0","primitives":[{"attributes":{"POSITION":0,"TEXCOORD_0":1},"indices":2,"material":0,"mode":4}]}],"nodes":[{"mesh":0,"name":"mesh0"},{"camera":0,"matrix":[-0.18668567663047847,0.9822339771102588,0.01910163216020762,-0.0,-0.5291623489867431,-0.11691772048599466,0.8404269480753167,0.0,0.8277292229683889,0.14678780891655235,0.5415881023412765,-0.0,1031668.3893615345,3405515.293717025,499100.67500520585,1.0],"name":"Camera Node"},{"children":[0,1],"name":"Renderer Node"}],"samplers":[{"magFilter":9728,"minFilter":9728,"wrapS":33071,"wrapT":33071}],"scene":0,"scenes":[{"name":"Layer 0","nodes":[2]}],"textures":[{"sampler":0,"source":0}]}